# xmcd CD database file
#
# Track frame offsets:
#	150
#	18360
#	39030
#	57800
#	76412
#	100077
#	120890
#	138937
#	158797
#	181527
#
# Disc length: 2687 seconds
#
# Revision: 1
# Processed by: cddbd v1.5.1PL0 Copyright (c) Steve Scherf et al.
# Submitted via: CDex 1.51
#
DISCID=620a7d0a
DTITLE=Cece Winans - His Gift
DYEAR=1998
DGENRE=Chirstmas
TTITLE0=He's brought joy to the world
TTITLE1=Oh, holy night
TTITLE2=Glory to the king
TTITLE3=Let's celebrate christmas
TTITLE4=Do you hear what I hear?
TTITLE5=What a child
TTITLE6=Go tell it on the mountain
TTITLE7=Away in a a manger
TTITLE8=Christams star
TTITLE9=We wish you a merry christmas
EXTD=YEAR: 1998
EXTT0=
EXTT1=
EXTT2=
EXTT3=
EXTT4=
EXTT5=
EXTT6=
EXTT7=
EXTT8=
EXTT9=
PLAYORDER=
